<svg xmlns="http://www.w3.org/2000/svg" version="1.1" xmlns:xlink="http://www.w3.org/1999/xlink" xmlns:svgjs="http://svgjs.dev/svgjs" width="100%" height="100%" viewBox="0 0 1000 600"><rect width="1000" height="600" x="0" y="0" fill="#ffffff"/><g><rect width="333.3333333333333" height="333.3333333333333" rx="13.333333333333334" ry="13.333333333333334" y="201.2210189541802" fill="#8aaae5" transform="matrix(0.6983286259043094,0,0,0.6983286259043092,0,43.093476701979085)" x="178.998779296875"/><path d="M201.12529706545882 320.86696207928645L201.12529706545882 297.39546088037457L250.05016463074028 297.39546088037457L250.05016463074028 320.86696207928645L236.79887007969901 320.86696207928645L271.77296127013057 418.4446765005905L305.9309903327854 320.86696207928645L297.3040478391456 320.86696207928645L297.3040478391456 297.39546088037457L342.10974466422067 297.39546088037457L342.10974466422067 320.86696207928645L329.98539305153776 320.86696207928645L283.6641522748773 441.1001155717256L258.52166671908924 441.1001155717256L212.35586634771963 320.86696207928645L201.12529706545882 320.86696207928645ZM490.20559080503705 335.08975916339523L464.5190638307311 335.08975916339523Q458.8066289362941 324.83069241420196 449.9853859360407 320.0508999515097Q441.1641429357874 315.2711074888174 429.5449726402996 315.2711074888174L429.5449726402996 315.2711074888174Q420.6848695387236 315.2711074888174 412.91284927418326 318.9628171144741Q405.1019689083202 322.6545267401307 399.31181381123764 329.4939045729262Q393.48279861283237 336.3332824057218 390.14082989908 346.0871678377199Q386.79886118532767 355.84105326971803 386.79886118532767 367.88768467975547L386.79886118532767 367.88768467975547Q386.79886118532767 379.7788756845023 390.14082989908 389.33846060988685Q393.48279861283237 398.89804553527154 399.35067391256035 405.65970316542155Q405.257409313611 412.4213607955717 412.95170937550597 416.03535021858295Q420.6848695387236 419.6493396415942 429.5449726402996 419.6493396415942L429.5449726402996 419.6493396415942Q442.6796868873727 419.6493396415942 452.39471221804814 413.3151431259938Q462.07087744740096 406.9420865090708 467.8221724431608 394.662294491097L467.8221724431608 394.662294491097L488.84548725874237 405.0379415442584Q484.7651766198588 413.78146434186624 478.74186091483995 420.7374224786299Q472.71854520982123 427.7322407167162 465.1408254518944 432.6286134833766Q457.56310569396754 437.56384635135976 448.4698419844553 440.20633324130347Q439.41543837626585 442.8876802325699 429.27295193104067 442.8876802325699L429.27295193104067 442.8876802325699Q414.5449735297367 442.8876802325699 402.0320209038267 437.3695458447462Q389.5190682779168 431.8125513555999 380.4646646697273 421.8643654169882Q371.37140096021506 411.8773193770538 366.3195877882639 398.0819834074948Q361.26777461631264 384.2866474379356 361.26777461631264 367.88768467975547L361.26777461631264 367.88768467975547Q361.26777461631264 351.48872192157535 366.59160849752277 337.69338595201623Q371.9154423787329 323.8980499824571 381.2030065948586 313.98872414516825Q390.4905708109843 304.0793983078793 402.9258032342489 298.48354371741027Q415.3610356575134 292.8876891269412 429.5449726402996 292.8876891269412L429.5449726402996 292.8876891269412Q442.9517075966317 292.8876891269412 454.92061880402383 297.5120411843427Q466.85066991009325 302.1752533430669 475.8662134169601 311.5793978631607L475.8662134169601 311.5793978631607L490.20559080503705 311.5793978631607L490.20559080503705 335.08975916339523Z " fill="#ffffff" transform="matrix(0.6983286259043094,0,0,0.6983286259043092,0,43.093476701979085)"/><path d="M671.7337027346573 307.99133596065906L671.7337027346573 295.1088080928173L708.3293894528285 295.1088080928173L708.3293894528285 307.99133596065906L698.5775908533622 307.99133596065906L662.0665184397416 407.8573689066051L641.6321638907511 407.8573689066051L605.6287773044346 307.99133596065906L595.6654429435914 307.99133596065906L595.6654429435914 295.1088080928173L632.2611296617628 295.1088080928173L632.2611296617628 307.99133596065906L622.4247167577456 307.99133596065906L651.3628089140799 394.9113803103503L682.373951531906 307.99133596065906L671.7337027346573 307.99133596065906ZM713.6812442156594 343.59280460035984L713.6812442156594 330.8160446132064L738.8116926672128 330.8160446132064L738.8116926672128 395.05945534331397L750.4250059667944 395.05945534331397L750.4250059667944 407.8573689066051L713.8293192486232 407.8573689066051L713.8293192486232 395.05945534331397L724.8291788402122 395.05945534331397L724.8291788402122 343.59280460035984L713.6812442156594 343.59280460035984ZM722.2272889752786 303.5279313956105L722.2272889752786 303.5279313956105Q722.2272889752786 301.58180239094474 723.0099712923724 299.8472091476557Q723.7926536094662 298.091462328229 725.1041753300019 296.77994060769333Q726.3945434743998 295.4895724632954 728.1925974461019 294.70689014620154Q729.9694978416662 293.92420782910773 731.979087574745 293.92420782910773L731.979087574745 293.92420782910773Q733.9040630032731 293.92420782910773 735.6598098226998 294.70689014620154Q737.4155566421265 295.4895724632954 738.7059247865245 296.77994060769333Q740.0174465070601 298.091462328229 740.800128824154 299.8472091476557Q741.5828111412478 301.58180239094474 741.5828111412478 303.5279313956105L741.5828111412478 303.5279313956105Q741.5828111412478 305.51636755255157 740.800128824154 307.3144215242536Q740.0174465070601 309.09132191981803 738.7059247865245 310.4663043687666Q737.4155566421265 311.8412868177153 735.6598098226998 312.6239691348091Q733.9040630032731 313.4066514519029 731.979087574745 313.4066514519029L731.979087574745 313.4066514519029Q729.9694978416662 313.4066514519029 728.1925974461019 312.6239691348091Q726.3945434743998 311.8412868177153 725.1041753300019 310.4663043687666Q723.7926536094662 309.09132191981803 723.0099712923724 307.3144215242536Q722.2272889752786 305.51636755255157 722.2272889752786 303.5279313956105ZM808.428111736289 407.8573689066051L808.428111736289 400.70746017207216Q804.049321475791 404.81125394278047 798.7186202890979 407.41314380771394Q793.4090726785423 410.0150336726475 786.6399283144875 410.0150336726475L786.6399283144875 410.0150336726475Q780.9919234857293 410.0150336726475 776.2746760070287 408.2381332770832Q771.5362749521903 406.4400793053811 768.1305491940252 403.3516571892811Q764.7036698597225 400.26323507318114 762.7998480073321 396.1805948786106Q760.9171797310793 392.09795468404 760.9171797310793 387.48647508602767L760.9171797310793 387.48647508602767Q760.9171797310793 382.57884542208797 762.355622908441 378.7712017173071Q763.8152196619402 374.9847115886639 766.2267273416347 372.1924395384914Q768.6382350213294 369.40016748831874 771.874732170393 367.517499212066Q775.1112293194567 365.61367735967565 778.6438765344478 364.4713842482413Q782.1765237494388 363.3079375606694 785.8572459973938 362.821405309503Q789.5379682453485 362.3348730583366 792.8802332751005 362.3348730583366L792.8802332751005 362.3348730583366Q798.2320880379314 362.3348730583366 801.8916567097485 362.67333027653933Q805.530071805428 363.01178749474207 808.5127260408397 363.6040876265969L808.5127260408397 363.6040876265969L808.5761867692526 357.2791683614331Q808.5761867692526 353.19652816686255 807.391586505543 350.1927203553132Q806.2069862418335 347.16775896762624 804.049321475791 345.20047638682286Q801.8916567097485 343.23319380601936 798.8666953220616 342.26012930368654Q795.8628875105122 341.30821837749136 792.139858110282 341.30821837749136L792.139858110282 341.30821837749136Q788.6495180475663 341.30821837749136 785.455328050778 341.77359705252013Q782.2611380539896 342.26012930368654 779.468866003817 343.0428116207804Q776.6765939536443 343.82549393787417 774.3285470023628 344.8408655924824Q771.9805000510813 345.83508367095294 770.3516746884807 346.95622320624955L770.3516746884807 346.95622320624955L765.8248093950191 337.35249963974684Q768.5747742929163 335.5755992441824 771.8324250181178 334.05254176227004Q775.1112293194567 332.5294842803578 778.7284908389985 331.45065189733657Q782.3245987824026 330.37181951431523 786.0899353349081 329.73721223018515Q789.8341183112759 329.10260494605507 793.4725334069553 329.10260494605507L793.4725334069553 329.10260494605507Q800.1782170425971 329.10260494605507 805.530071805428 330.7102767325181Q810.8819265682588 332.29679494284335 814.604955968489 335.6390599725954Q818.327985368719 339.0024785784851 820.3375751017978 344.1639511560769Q822.326011258739 349.3254237336687 822.326011258739 356.5387931966146L822.326011258739 356.5387931966146L822.2625505303259 395.05945534331397L830.8085952899452 395.05945534331397L830.8085952899452 407.8573689066051L808.428111736289 407.8573689066051ZM789.6860432783122 398.4228739492037L789.6860432783122 398.4228739492037Q792.4360081762095 398.4228739492037 795.1859730741068 397.7459595127982Q797.935937972004 397.06904507639274 800.3897528039739 395.9267519649585Q802.8435676359437 394.7633052773866 804.9377716735731 393.24024779547426Q807.010822135065 391.7171903135619 808.428111736289 390.08836495096125L808.428111736289 390.08836495096125L808.5127260408397 372.6789717896578L792.4360081762095 372.6789717896578Q788.416828710052 372.6789717896578 785.1168708325752 373.56742198743996Q781.7957593789608 374.45587218522223 779.3842516992663 376.16931185237354Q776.9727440195718 377.88275151952496 775.6400687228985 380.4211806560455Q774.2862398500876 382.93845621642834 774.2862398500876 386.2172605177674L774.2862398500876 386.2172605177674Q774.2862398500876 389.2633754815921 775.4073793853842 391.52680812832284Q776.5285189206808 393.8113943511913 778.5804158060348 395.3344518331037Q780.6111591152512 396.85750931501605 783.4457383176992 397.6401916321099Q786.2591639440094 398.4228739492037 789.6860432783122 398.4228739492037ZM845.2353342158369 343.59280460035984L845.2353342158369 330.8160446132064L870.2388612105643 330.8160446132064L870.2388612105643 413.8015238012907Q870.2388612105643 420.42259313238185 868.525421543413 425.75329431907494Q866.8119818762616 431.0628419296304 863.5754847271979 434.8070249059982Q860.3389875781342 438.5723614585038 855.6428936755711 440.6454119199956Q850.9679533491459 442.739615957625 844.9391841499095 442.8876909905887L844.9391841499095 442.8876909905887L843.5218945486855 432.5435922592675Q850.1429638797766 431.57052775693455 853.1679252674636 426.2609801463791Q856.1717330790129 420.95143253582364 856.1717330790129 412.236159167103L856.1717330790129 412.236159167103L856.1717330790129 343.59280460035984L845.2353342158369 343.59280460035984ZM854.3948326834485 303.5279313956105L854.3948326834485 303.5279313956105Q854.3948326834485 301.7298774239084 855.0929006959917 300.1645127897208Q855.8121222846725 298.62030173167074 856.9967225483821 297.4145478918235Q858.1813228120917 296.2299476281139 859.7889945985547 295.53187961557074Q861.3755128088801 294.81265802688995 863.2370275089951 294.81265802688995L863.2370275089951 294.81265802688995Q865.0139279045595 294.81265802688995 866.6215996910225 295.53187961557074Q868.2292714774856 296.2299476281139 869.4138717411952 297.4145478918235Q870.5984720049047 298.62030173167074 871.3176935935857 300.1645127897208Q872.0157616061286 301.7298774239084 872.0157616061286 303.5279313956105L872.0157616061286 303.5279313956105Q872.0157616061286 305.36829251958784 871.3176935935857 307.01827145832624Q870.5984720049047 308.6470968209269 869.4138717411952 309.87400423691184Q868.2292714774856 311.1009116528968 866.6215996910225 311.82013324157765Q865.0139279045595 312.51820125412075 863.2370275089951 312.51820125412075L863.2370275089951 312.51820125412075Q861.3755128088801 312.51820125412075 859.7889945985547 311.82013324157765Q858.1813228120917 311.1009116528968 856.9967225483821 309.87400423691184Q855.8121222846725 308.6470968209269 855.0929006959917 307.01827145832624Q854.3948326834485 305.36829251958784 854.3948326834485 303.5279313956105ZM959.9088704581528 371.11360715547016L904.4441938251788 371.11360715547016Q904.4441938251788 374.3924114568092 904.9307260763452 377.1000692024311Q905.396104751374 379.8288805241907 906.3057085252939 382.2826953561605L906.3057085252939 382.2826953561605Q909.055673423191 389.70760058048313 915.1055961985651 393.4729371329886Q921.1766725500767 397.2171201093564 928.8342671119137 397.2171201093564L928.8342671119137 397.2171201093564Q934.86303631115 397.2171201093564 940.5533482921836 395.5459875944804Q946.2436602732172 393.87485507960434 952.4839652338302 390.29990071233794L952.4839652338302 390.29990071233794L958.0473557580377 399.755549245877Q950.4743755007513 404.95932897574414 942.8167809389143 407.47660453612696Q935.1591863770774 410.0150336726475 926.888138107248 410.0150336726475L926.888138107248 410.0150336726475Q919.0824685124472 410.0150336726475 912.4402456052185 407.41314380771394Q905.776869121852 404.81125394278047 900.9750073386007 399.6709349413263Q896.1731455553494 394.5517695160099 893.4654878097274 386.89417495417285Q890.7578300641054 379.21542681619826 890.7578300641054 369.0405566939784L890.7578300641054 369.0405566939784Q890.7578300641054 360.7906620002866 893.0635698631116 353.4503710805146Q895.3693096621179 346.1312337368804 899.9384821078548 340.67361109336116Q904.5076545535918 335.1948348737043 911.2767989176465 332.000644876916Q918.0459432817014 328.8064548801276 927.0362131402117 328.8064548801276L927.0362131402117 328.8064548801276Q935.7514865089322 328.8064548801276 941.5898735229295 331.45065189733657Q947.4282605369267 334.0736953384078 951.1089827848815 338.43133202276806Q954.7897050328363 342.78896870712833 956.672373309089 348.35235923133587Q958.5761951614795 353.93690333168104 959.3165703262979 359.732983193403L959.3165703262979 359.732983193403Q959.697334696776 362.5675623958509 959.8031025774644 365.46560232671186Q959.9088704581528 368.3636422575729 959.9088704581528 371.11360715547016L959.9088704581528 371.11360715547016ZM926.0843022140165 340.39861460357145L926.0843022140165 340.39861460357145Q921.2401332784897 340.39861460357145 917.6440253350856 341.77359705252013Q914.0267638155439 343.1485795014687 911.5094882551609 345.72931579026465Q908.9710591186404 348.28889850292285 907.448001636728 352.01192790315304Q905.9249441548158 355.7349573033831 905.1845689899973 360.34643690139546L905.1845689899973 360.34643690139546L945.1225207379206 360.34643690139546Q944.8263706719932 356.0311073693106 943.7475382889719 352.3715386974934Q942.6687059059507 348.733123601814 940.4264268353576 346.0677730084674Q938.2053013409021 343.38126883898315 934.7149612781864 341.90051850934617Q931.2034676393329 340.39861460357145 926.0843022140165 340.39861460357145ZM1023.2003702620651 351.48308849971124Q1023.2003702620651 348.35235923133587 1021.7619270847036 346.1735408891557Q1020.3023303312042 343.97356897083796 1017.9965905321982 342.5985865218893Q1015.690850733192 341.2236040729406 1012.8774251068816 340.5889967888105Q1010.0428459044336 339.9543895046804 1007.3563417349494 339.9543895046804L1007.3563417349494 339.9543895046804Q1004.3948410756755 339.9543895046804 1001.8987190914303 340.6313039410859Q999.402597107185 341.30821837749136 997.6256967116207 342.5562793696139Q995.8276427399186 343.82549393787417 994.833424661448 345.6447014857139Q993.8392065829775 347.4639090335537 993.8392065829775 349.7061881041468L993.8392065829775 349.7061881041468Q993.8392065829775 353.57729253734067 996.1660999581212 355.8407251840715Q998.5141469094028 358.10415783080225 1004.0140767051973 360.02913325933037L1004.0140767051973 360.02913325933037L1018.8215800015672 365.25406656533517Q1028.3406892635194 368.44825656212356 1032.719479524017 373.9481863579181Q1037.119423360653 379.4481161537126 1037.119423360653 387.10571071554955L1037.119423360653 387.10571071554955Q1037.119423360653 392.2460297170037 1035.0675264752986 396.5190520968133Q1033.0156295899446 400.79207447662293 1029.2714466135767 403.79588228817215Q1025.5061100610715 406.82084367585924 1020.2388696027912 408.4919761907353Q1014.9504755683735 410.1631087056113 1008.477481270246 410.1631087056113L1008.477481270246 410.1631087056113Q999.4872114117358 410.1631087056113 993.8392065829775 407.26506877475026Q988.1700481780816 404.36702884388933 985.1239332142569 399.6074742129133L985.1239332142569 399.6074742129133L977.4028779240069 399.6074742129133L977.4028779240069 386.8095606496222L992.7815277760939 386.8095606496222Q992.7815277760939 390.0037506464106 994.1565102250426 392.26718329314133Q995.5314926739912 394.5517695160099 997.8160788968597 395.94790554109613Q1000.0795115435905 397.3651951423201 1002.9352443221761 398.0421095787257Q1005.8121306768993 398.71902401513114 1008.7736313361734 398.71902401513114L1008.7736313361734 398.71902401513114Q1011.6716712670344 398.71902401513114 1014.3581754365185 397.9998024264503Q1017.0235260298651 397.3017344139072 1019.0754229152193 395.9267519649585Q1021.1273198005734 394.5517695160099 1022.3119200642831 392.60564051134406Q1023.4965203279926 390.68066508281606 1023.4965203279926 388.22685025084616L1023.4965203279926 388.22685025084616Q1023.4965203279926 384.5038208506161 1021.085012648298 381.9019309856825Q1018.6735049686034 379.3000411207489 1012.8774251068816 377.2269906592571L1012.8774251068816 377.2269906592571L998.1333825389247 371.70590728732486Q989.1431126804144 368.5117172905366 984.7854759960542 363.5617804743215Q980.4489928878317 358.63299723424404 980.4489928878317 351.1869384337838L980.4489928878317 351.1869384337838Q980.4489928878317 346.2793087698441 982.2682004356712 342.11205427072287Q984.0874079835111 337.94479977160165 987.5354408939514 334.9409919600523Q991.0046273805295 331.937184148503 995.9757177728821 330.22374448135156Q1000.9679617413727 328.51030481420025 1007.3563417349494 328.51030481420025L1007.3563417349494 328.51030481420025Q1015.6273900047788 328.51030481420025 1021.1907805289865 330.8160446132064Q1026.7753246293314 333.1217844122126 1031.23872919438 338.68517493642014L1031.23872919438 338.68517493642014L1038.4520986573261 338.68517493642014L1038.4520986573261 351.48308849971124L1023.2003702620651 351.48308849971124ZM1151.7929596029687 324.8718897185207L1135.8008560428893 324.8718897185207Q1130.8086120743988 316.3893056873146 1122.6010245329824 311.5451367517879Q1114.3722834154282 306.72212139239883 1104.2608740216215 306.72212139239883L1104.2608740216215 306.72212139239883Q1095.6302149574515 306.72212139239883 1088.5014597990562 310.3605364880783Q1081.3515510645234 313.99895158375773 1076.2746927914823 320.13348866368244Q1071.1766809423034 326.26802574360704 1068.3421017398555 334.3486918281975Q1065.5286761135453 342.4082043366502 1065.5286761135453 351.33501346674745L1065.5286761135453 351.33501346674745Q1065.5286761135453 361.89064795944546 1068.638251805783 370.03477477244894Q1071.7689810741585 378.1789015854523 1076.7823786187864 383.57306350055853Q1081.7957761634145 388.96722541566464 1088.712995560433 392.5844869352064Q1095.6302149574515 396.1805948786106 1104.2608740216215 396.1805948786106L1104.2608740216215 396.1805948786106Q1116.0222623541665 396.1805948786106 1124.7163821467495 390.490282897577Q1133.4105019393323 384.79997091654343 1139.5873461715323 371.79052159187563L1139.5873461715323 371.79052159187563L1152.6814098007508 377.9673658240756Q1149.8468305983029 385.98457118025306 1143.0776862342482 393.4729371329886Q1136.3085418701933 400.9401495095866 1126.3875146616256 405.50932195532357Q1116.4664874530577 410.07849440106054 1104.4089490545853 410.07849440106054L1104.4089490545853 410.07849440106054Q1092.8802500595543 410.07849440106054 1083.2130657646385 405.742011292838Q1073.5458814697226 401.38437460847763 1065.994054788574 393.34601567616266Q1058.463381683563 385.3288103199852 1054.465355793543 374.30779715225844Q1050.4884834796612 363.3079375606694 1050.4884834796612 351.33501346674745L1050.4884834796612 351.33501346674745Q1050.4884834796612 339.2986286444126 1054.465355793543 328.5737655426133Q1058.463381683563 317.8700560169516 1065.6344439942336 309.95861854146256Q1072.8055063049042 302.02602748983577 1082.726533513472 297.4568550440988Q1092.6687142981777 292.88768259836183 1104.2608740216215 292.88768259836183L1104.2608740216215 292.88768259836183Q1114.6049727529426 292.88768259836183 1122.114492281816 295.82802968149815Q1129.6240118106894 298.76837676463447 1134.8700986928318 302.80870980692964Q1140.1161855749742 306.87019642536256 1143.9026757036172 311.6297510563386L1143.9026757036172 311.6297510563386L1151.7929596029687 311.6297510563386L1151.7929596029687 324.8718897185207ZM1167.9965989244247 307.99133596065906L1167.9965989244247 295.1088080928173L1204.5922856425962 295.1088080928173L1204.5922856425962 307.99133596065906L1193.275122408942 307.99133596065906L1193.275122408942 395.05945534331397L1232.1765489261195 395.05945534331397Q1233.361149189829 395.05945534331397 1234.566903029676 394.50946236373454Q1235.751503293386 393.9594693841551 1236.7245677957187 393.0498656102352Q1237.6764787219138 392.16141541245304 1238.268778853769 391.0191223010188Q1238.8610789856236 389.8556756134468 1238.8610789856236 388.6710753497373L1238.8610789856236 388.6710753497373L1238.8610789856236 374.45587218522223L1252.9916678455877 374.45587218522223L1252.9916678455877 407.8573689066051L1167.9965989244247 407.8573689066051L1167.9965989244247 395.05945534331397L1178.7003084500866 395.05945534331397L1178.7003084500866 307.99133596065906L1167.9965989244247 307.99133596065906Z " fill="#8aaae5" transform="matrix(0.6983286259043094,0,0,0.6983286259043092,0,43.093476701979085)"/></g></svg>